<svg xmlns="http://www.w3.org/2000/svg" viewBox="0 0 164.07 67.79">
  <defs></defs>
  <g id="Layer_2" data-name="Layer 2">
    <g id="Layer_1-2" data-name="Layer 1">
      <path class="cls-1"
        d="M.4,13.26C15.92-7.36,49,.6,67.53,12.08c6.87,4.25,13.18,9.76,17,16.89,6.81,12.83-.63,39-19.07,33.88A10,10,0,0,1,60.53,60c-2-2.2-2.41-5.35-2.35-8.29a29.83,29.83,0,0,1,8.29-19.88c7.44-7.69,17.72-9.9,28-8.45,22.26,3.14,44.67,15.77,62.69,28.71" />
      <path class="cls-1"
        d="M152,29.29c5.74,6.52,4.08,17.46,10.13,23.71a4.32,4.32,0,0,1,1.41,2c.28,1.47-1.19,2.61-2.48,3.36a166.29,166.29,0,0,1-17.92,8.95" />
    </g>
  </g>
</svg>