<svg xmlns="http://www.w3.org/2000/svg" viewBox="0 0 1501.19 979.81"><defs><style>.cls-1{fill:#dfe6f2;}.cls-2{fill:#e8efff;}.cls-3{fill:#fff;}.cls-4,.cls-6,.cls-8{fill:none;stroke-miterlimit:10;stroke-width:2px;}.cls-4,.cls-8{stroke:#5f6368;}.cls-4,.cls-6{stroke-linecap:round;}.cls-5{fill:#5f6368;}.cls-6{stroke:#babcbe;}.cls-7{fill:#babcbe;}.cls-9{fill:#63676c;}.cls-10{fill:#4585f4;}.cls-11{fill:#ff6158;}.cls-12{fill:#ffbe2f;}.cls-13{fill:#28ca41;}</style></defs><g id="Layer_2" data-name="Layer 2"><g id="Layer_2-2" data-name="Layer 2"><path class="cls-1" d="M1089.09,979.81h-677q35.61-81.87,46-163.75h587A448.29,448.29,0,0,0,1089.09,979.81Z"/><rect class="cls-2" width="1501.19" height="825.44" rx="15.41"/><rect class="cls-3" x="18.17" y="19.47" width="1466.62" height="786.5"/><rect class="cls-2" x="179.87" y="103.8" width="1250.21" height="36.12" rx="17.33"/><rect class="cls-2" x="18.17" y="152.5" width="1467.48" height="2.08"/><line class="cls-4" x1="49.21" y1="125.76" x2="64.84" y2="125.76"/><polygon class="cls-5" points="55.83 133.94 57.2 132.48 49.97 125.76 57.2 119.05 55.83 117.58 47.04 125.76 55.83 133.94"/><line class="cls-6" x1="113.18" y1="125.76" x2="96.03" y2="125.76"/><polygon class="cls-7" points="106.55 117.58 105.19 119.05 112.41 125.76 105.19 132.47 106.55 133.94 115.35 125.76 106.55 117.58"/><path class="cls-8" d="M161.46,126a11.13,11.13,0,1,1-3.26-7.86"/><polygon class="cls-5" points="152.53 120.83 156.94 117.59 161.36 114.35 160.84 118.27 160.31 122.18 156.42 121.51 152.53 120.83"/><path class="cls-9" d="M1460.06,118a1.6,1.6,0,1,1,0,3.2,1.6,1.6,0,1,1,0-3.2Z"/><path class="cls-9" d="M1460.06,124.51a1.6,1.6,0,1,1,0,3.2,1.6,1.6,0,1,1,0-3.2Z"/><path class="cls-9" d="M1460.06,131a1.6,1.6,0,1,1,0,3.2,1.6,1.6,0,1,1,0-3.2Z"/><rect class="cls-10" x="19.02" y="15.73" width="1465.67" height="72.24"/><circle class="cls-11" cx="53.42" cy="54.62" r="9.72"/><circle class="cls-12" cx="85.37" cy="54.62" r="9.72"/><circle class="cls-13" cx="117.32" cy="54.62" r="9.72"/><path class="cls-3" d="M184.77,32.4h198.5a4.93,4.93,0,0,1,4.93,4.93V88a0,0,0,0,1,0,0H179.84a0,0,0,0,1,0,0V37.33a4.93,4.93,0,0,1,4.93-4.93Z"/><path class="cls-3" d="M395.92,32.4h198.5a4.93,4.93,0,0,1,4.93,4.93V88a0,0,0,0,1,0,0H391a0,0,0,0,1,0,0V37.33A4.93,4.93,0,0,1,395.92,32.4Z"/><path class="cls-3" d="M607.07,32.4h198.5a4.93,4.93,0,0,1,4.93,4.93V88a0,0,0,0,1,0,0H602.14a0,0,0,0,1,0,0V37.33A4.93,4.93,0,0,1,607.07,32.4Z"/><path class="cls-3" d="M818.23,32.4h198.5a4.93,4.93,0,0,1,4.93,4.93V88a0,0,0,0,1,0,0H813.29a0,0,0,0,1,0,0V37.33a4.93,4.93,0,0,1,4.93-4.93Z"/></g></g></svg>