<svg xmlns="http://www.w3.org/2000/svg" viewBox="0 0 610.4 116.27"><defs><style>.cls-1{fill:#0d32ff;}</style></defs><g id="Layer_2" data-name="Layer 2"><g id="Layer_2-2" data-name="Layer 2"><path class="cls-1" d="M21.07,109.6C10.6,104.07,4.68,92.3,1.76,81.18-5.06,55.24,8.42,34.54,34.55,29A82.44,82.44,0,0,1,55,26.87c6.47.28,11.4,1.11,14.79,2.43C71.87,39.67,72.92,44.85,75,55.21c-10.56,2.13-15.83,3.26-26.35,5.64-.67-3-1-4.45-1.68-7.42-.59-2.61-1.65-4.4-3.19-5.35S40.22,47,37.7,47.53s-4.25,1.66-5.21,3.19-1.12,3.6-.49,6.21q3.73,15.51,7.46,31,.95,3.9,3.2,5.32c1.5.95,3.45,1.13,5.86.57a7.49,7.49,0,0,0,5-3.11q1.4-2.27.51-6.18c-.76-3.34-1.13-5-1.89-8.36,10.37-2.34,15.57-3.46,26-5.56,2.17,10.74,3.25,16.11,5.42,26.84-2.51,2.52-6.42,5.15-11.72,8a76.32,76.32,0,0,1-17.77,6.45C43.26,114.49,31,114.86,21.07,109.6Z"/><path class="cls-1" d="M98.2,92.27c-9.86-6.4-14.64-18.73-16.85-29.81S79,37.9,86.26,28.47c7.09-9.21,19.06-13.75,30.26-15.53s24-1.16,33.55,5.41c9.8,6.72,13.81,19.51,15.16,30.81s.61,24.41-6.77,33.55c-6.87,8.51-18,12.71-28.59,14.39S107.38,98.23,98.2,92.27Zm33.92-16.5c1-1.44,1.35-3.48.94-6.13q-2.38-15.78-4.79-31.56-.6-4-2.79-5.57c-1.46-1.06-3.47-1.39-6-1s-4.34,1.35-5.41,2.8-1.37,3.52-.93,6.16q2.61,15.75,5.21,31.5.68,4.06,2.81,5.59a7.59,7.59,0,0,0,5.77.94A7.49,7.49,0,0,0,132.12,75.77Z"/><path class="cls-1" d="M231.42,2Q250.23.84,269.07.33c.18,6.93.28,10.4.46,17.33l-5.65.17q1,32.45,2.06,64.88-15,.45-30,1.36-17.3-22.93-35.42-45.19,1.33,15.12,2.66,30.23l5.2-.45c.58,6.91.86,10.37,1.44,17.28q-17.47,1.45-34.9,3.48l-2-17.22,5.4-.62L173.08,24.3l-5.63.64-2-17.22q20.63-2.4,41.32-4Q223.34,23.56,239.23,44c-.55-10-.82-15-1.36-25l-5.43.31C232,12.34,231.83,8.87,231.42,2Z"/><path class="cls-1" d="M359.06,27c-7.73-.4-11.59-.56-19.31-.82.11-3.3.16-4.95.28-8.24-2.9-.1-4.35-.15-7.24-.23q-.66,23.78-1.33,47.56c3,.08,4.56.13,7.6.23l-.6,17.33q-22.44-.66-44.86-.63c0-6.94-.07-10.4-.11-17.34,3,0,4.56,0,7.59,0q0-23.79,0-47.57c-2.89,0-4.34,0-7.24,0l.05,8.24c-7.73,0-11.6.1-19.33.28-.23-10.23-.35-15.35-.58-25.58q43.23-.75,86.36,1.22Z"/><path class="cls-1" d="M429.45,72.32l4.32.52c-.83,6.88-1.25,10.32-2.08,17.21Q410.86,87.64,390,85.82c.57-6.92.85-10.37,1.42-17.28,2.6.21,3.89.32,6.49.55-.39-3.43-.6-5.15-1-8.58-5.93-.51-8.9-.75-14.84-1.18-.94,3.32-1.41,5-2.34,8.31,2.59.18,3.89.28,6.49.48-.53,6.92-.8,10.37-1.34,17.29Q366.65,84,348.39,83.2l.75-17.32c1.74.07,2.61.11,4.34.2Q364.31,34,376,2.33q20.88,1.44,41.7,3.42Q424,39,429.45,72.32Zm-44.16-24c4.06.31,6.09.47,10.14.81-1.1-8.54-1.67-12.8-2.83-21.34l-1.13-.09C389,36,387.73,40.08,385.29,48.33Z"/><path class="cls-1" d="M444.45,82.92c-7.57-9.09-8.55-22.22-7.05-33.6,3.49-26.5,23.6-40.68,49.89-36a81.84,81.84,0,0,1,19.65,5.8c5.88,2.7,10.12,5.33,12.76,7.84-2,10.39-3,15.58-5,26-10.58-2-15.87-3-26.48-4.73l1.25-7.51c.44-2.64.13-4.7-.93-6.16s-2.86-2.4-5.4-2.8-4.55-.08-6,1-2.4,2.91-2.8,5.56l-4.83,31.56c-.41,2.65-.09,4.69.94,6.13a7.46,7.46,0,0,0,5.19,2.75c2.43.38,4.36.06,5.79-1s2.36-2.9,2.8-5.54c.56-3.38.84-5.07,1.41-8.45,10.46,1.75,15.68,2.68,26.11,4.67-2,10.76-3.08,16.14-5.13,26.9-3.27,1.38-7.89,2.34-13.84,2.92A75.47,75.47,0,0,1,474,97.5C463,95.83,451.62,91.55,444.45,82.92Z"/><path class="cls-1" d="M603.65,66.19c-7.53-2.06-11.29-3.06-18.84-5,.81-3.2,1.22-4.8,2-8-2.83-.73-4.25-1.08-7.08-1.79Q574,74.51,568.29,97.6c3,.74,4.46,1.11,7.42,1.87l-4.3,16.8q-21.92-5.49-44-10.3l3.6-17c3,.64,4.48,1,7.46,1.62l10.21-46.47-7.12-1.54-1.72,8.07c-7.6-1.62-11.41-2.4-19-3.89,2-10,2.94-15.06,4.91-25.11q42.66,8.58,84.64,19.82Z"/></g></g></svg>