<svg xmlns="http://www.w3.org/2000/svg" viewBox="0 0 38.73 54.15"><defs><style>.cls-1{fill:#053ad1;}</style></defs><g id="Layer_2" data-name="Layer 2"><g id="Layer_2-2" data-name="Layer 2"><path class="cls-1" d="M29.19,51.56c-2.49.72-5,1.43-7.45,2.16a7.85,7.85,0,0,0-1,.43H18.52c-.89-1-2.11-1-3.29-1h0l-.67-.21v0l-1.47-.54A12,12,0,0,0,8.2,51.14l-.34,0-2.61-.65,0-.07c-.2-.18-.39-.49-.61-.52-.83-.1-.94-.64-.93-1.31a5.44,5.44,0,0,0,0-1.07c-.15-.84-.37-1.67-.56-2.5l-.09,0,.07-.44a8,8,0,0,0,.14-1.46c-.18-2.35-.41-4.69-.64-7,0-.21-.21-.4-.32-.6l0-.47a5.83,5.83,0,0,0,.14-1.16c-.13-2-.26-3.94-.46-5.9a18.75,18.75,0,0,0-.52-2.31l-.1,0,.07-.43L1,20.88,1,20.24a5.86,5.86,0,0,0,.15-1.16C.91,16.72.71,14.36.46,12c-.11-1,.18-1.36,1.27-1.36,11.84,0,23.68,0,35.52,0a1.87,1.87,0,0,1,.75,0c.23.13.36.41.54.63-.07.5-.18,1-.22,1.49-.17,1.93-.29,3.87-.48,5.81-.25,2.68-.58,5.36-.82,8-.26,2.87-.43,5.74-.68,8.61-.33,3.83-.7,7.66-1.05,11.49a9.92,9.92,0,0,1,0,1.09c-.33,1.94-.14,1.79-1.84,2.26C32,50.51,30.59,51.07,29.19,51.56ZM19.41,40.91l-6.11-1.1h0c-.14-1.1-.24-2.21-.44-3.3-.05-.29-.38-.75-.6-.76-1.4-.07-2.79,0-4.39,0,.26,2.49.5,4.84.78,7.19a.89.89,0,0,0,.58.52c1.29.34,2.59.63,3.88.93L19.39,46v5l4.13-1.15c2.61-.72,5.23-1.4,7.82-2.17.42-.13,1-.61,1-1,.37-3.33.64-6.67.92-10,.24-2.88.43-5.75.69-8.62q.6-6.62,1.27-13.22c.1-1-.2-1.34-1.24-1.33-4.46,0-8.91,0-13.36,0-.32,0-.64,0-1.26.08v4.24c-4,0-7.94,0-11.92,0a5,5,0,0,0-1.16.31v.09l-.16.25.46,4.26H18.37a1,1,0,0,1-.5.53,6,6,0,0,0-.51.37l-.17.12a.21.21,0,0,0-.16.13c-3.14,1.28-6.29,2.54-9.42,3.84a.86.86,0,0,0-.38.67c.1,1.46.26,2.92.4,4.45H19.4l.12,7.9A.31.31,0,0,0,19.41,40.91Z"/><path class="cls-1" d="M15.23,53.12c1.18.07,2.4,0,3.29,1h-.87L17,53.91h0l-.24-.21-.07-.05-.07,0-.51-.16-.32-.07Z"/><path class="cls-1" d="M15.79.11,23,0V2.12H17.85l-.17.41c.29.16.58.45.87.45C20,3,21.44,3,23,3V7.3H15.82V5.6c1.39,0,2.73,0,4.06,0,.77,0,1.1-.2.84-1.11H15.79Z"/><path class="cls-1" d="M24,0l7.13.08V2.13H25.86l-.17.39c.28.17.56.47.85.48C28,3,29.5,3,31,3V7.3H23.86V5.67h4.89l.1-1.17H23.74Z"/><path class="cls-1" d="M7.87,0,15,.1V2.17H10.05V5.45h4.83V7.29h-7Z"/><path class="cls-1" d="M38.54,11.32c-.18-.22-.31-.5-.54-.63a1.87,1.87,0,0,0-.75,0c-11.84,0-23.68,0-35.52,0C.64,10.64.35,11,.46,12c.25,2.36.45,4.72.65,7.08A5.86,5.86,0,0,1,1,20.24l-.23-.79v-.53c-.07-.8-.14-1.6-.22-2.4l0-.64L.06,11.53l0-.43,0-.43a2.84,2.84,0,0,1,.83-.29H38.31c.11,0,.21,0,.42,0v.91Z"/><path class="cls-1" d="M38.54,11.32h.19c-.37,4.39-.73,8.78-1.12,13.18q-1,10.91-2,21.82c0,.43-.12.86-.18,1.29l-.19-.85c.35-3.83.72-7.66,1.05-11.49.25-2.87.42-5.74.68-8.61.24-2.68.57-5.36.82-8,.19-1.94.31-3.88.48-5.81C38.36,12.31,38.47,11.82,38.54,11.32Z"/><path class="cls-1" d="M35.29,46.76l.19.85c0,2.26,0,2.27-2.14,2.86-1.38.39-2.77.73-4.15,1.09,1.4-.49,2.79-1.05,4.23-1.45,1.7-.47,1.51-.32,1.84-2.26A9.92,9.92,0,0,0,35.29,46.76Z"/><path class="cls-1" d="M2.27,35,1.8,31.09l0-.64L1.59,28.7l0-.42-.18-2,.06-.66A18.75,18.75,0,0,1,2,28c.2,2,.33,3.93.46,5.9A5.83,5.83,0,0,1,2.27,35Z"/><path class="cls-1" d="M2.63,40.45c-.1-1.66-.21-3.31-.32-5,.11.2.3.39.32.6.23,2.35.46,4.69.64,7a8,8,0,0,1-.14,1.46l-.45-3.71Z"/><path class="cls-1" d="M3.15,45c.19.83.41,1.66.56,2.5a5.44,5.44,0,0,1,0,1.07c0,.67.1,1.21.93,1.31.22,0,.41.34.61.52H5l-1.39-.48a.09.09,0,0,0-.06-.11l-.18-1.75,0-.65-.16-1.75Z"/><path class="cls-1" d="M8.2,51.14a12,12,0,0,1,4.89,1.25l-.1.14-.78-.11-.07-.05h-.09l-.71-.19-.05,0h-.07L9.64,51.7v0l-1.34-.4A1.62,1.62,0,0,1,8.2,51.14Z"/><path class="cls-1" d="M1.23,24.15C1.16,23.06,1.1,22,1,20.88c.13,1.45.25,2.9.37,4.36l-.14-.65Z"/><path class="cls-1" d="M14.56,52.93l-.83-.08-.07,0h-.08L13,52.53l.1-.14Z"/><path class="cls-1" d="M19.4,17.83V13.59c.62,0,.94-.08,1.26-.08,4.45,0,8.9,0,13.36,0,1,0,1.34.34,1.24,1.33Q34.6,21.41,34,28c-.26,2.87-.45,5.74-.69,8.62-.28,3.33-.55,6.67-.92,10,0,.37-.62.85-1,1-2.59.77-5.21,1.45-7.82,2.17L19.39,51V46a.57.57,0,0,0,0-.13,2.43,2.43,0,0,0,.54,0c3.22-.85,6.44-1.68,9.64-2.58a1.37,1.37,0,0,0,.66-1q.38-3.24.62-6.48c.2-2.56.33-5.13.49-7.69-.1-.12-.19-.35-.29-.35-2.38,0-4.75.07-7.13.13a7.16,7.16,0,0,0-1,.18h-.44l.65-.87,0,0h.06l1-.43h.09l.51-.24h0l1.34-.61h0l1.54-.69h.1l.51-.22h0l.44-.22h0l.46-.22c.55-.26,1.1-.5,1.64-.79.34-.18.9-.39.93-.63.16-1.62.21-3.25.29-4.88A1.21,1.21,0,0,0,32,18a4,4,0,0,0-.82-.17c-3.51,0-7,0-10.54,0a4,4,0,0,0-.82.17l-.41,0A.82.82,0,0,0,19.4,17.83Z"/><path class="cls-1" d="M19.52,40.77l-.12-7.9a.57.57,0,0,0,0-.13h6.32c-.15,2.17-.26,4.08-.45,6,0,.24-.42.55-.7.64-1.64.54-3.3,1-4.95,1.54A.14.14,0,0,0,19.52,40.77Z"/><path class="cls-1" d="M17,18.2H11.52l-5.2,0a5,5,0,0,1,1.16-.31c4,0,8,0,11.92,0a.82.82,0,0,1,0,.22l-.51.16H17Z"/><path class="cls-1" d="M15.23,53.12l-.67-.21Z"/><path class="cls-1" d="M31.78,18.19H19.85a.47.47,0,0,0,0-.17,4,4,0,0,1,.82-.17c3.51,0,7,0,10.54,0A4,4,0,0,1,32,18Z"/><path class="cls-1" d="M31.33,28.07l-8.45,0a7.16,7.16,0,0,1,1-.18c2.38-.06,4.75-.1,7.13-.13C31.14,27.72,31.23,28,31.33,28.07Z"/><path class="cls-1" d="M22.44,28h-.78l-.08-.25,1.51-.62Z"/><path class="cls-1" d="M24.78,26.46l1.34-.61Z"/><path class="cls-1" d="M26.11,25.86l1.54-.69Z"/><path class="cls-1" d="M23.19,27.14l1-.43Z"/><path class="cls-1" d="M28.7,24.73l.46-.22Z"/><path class="cls-1" d="M28.26,24.94l.44-.22Z"/><path class="cls-1" d="M24.27,26.7l.51-.24Z"/><path class="cls-1" d="M27.75,25.16l.51-.22Z"/></g></g></svg>