<svg xmlns="http://www.w3.org/2000/svg" viewBox="0 0 39.11 55.55"><defs><style>.cls-1{fill:#053ad1;}</style></defs><g id="Layer_2" data-name="Layer 2"><g id="Layer_2-2" data-name="Layer 2"><path class="cls-1" d="M19.43,55.55c-2.54-.75-5.08-1.52-7.63-2.24S6.9,52,4.45,51.3a1.22,1.22,0,0,1-1-1.27c-.53-6.3-1.11-12.6-1.67-18.89L0,11.38c0-.07.05-.15.1-.28h39c-.18,2.19-.36,4.3-.54,6.42Q38,24,37.42,30.4L36.28,42.79c-.2,2.29-.45,4.58-.56,6.88a1.49,1.49,0,0,1-1.3,1.68c-4.72,1.25-9.41,2.59-14.1,3.9a3.73,3.73,0,0,0-.64.3ZM12.74,24.22h6.79c3.67,0,7.33,0,11,0,.36,0,1-.37,1-.65.23-1.44.31-2.91.46-4.47H7.25c-.07.2-.13.28-.12.35.39,4.58.81,9.16,1.19,13.74.06.76.43.94,1.13.93,3,0,5.92,0,8.89,0h7.11c-.12,1.29-.19,2.43-.34,3.56-.36,2.73-.37,2.76-3.05,3.43a9.85,9.85,0,0,1-3.24.49,33.15,33.15,0,0,1-3.92-1c-.71-.16-.87-.53-.88-1.2,0-1-.19-1.93-.28-2.85H8.69c.2,2.48.38,4.84.63,7.2,0,.28.48.64.8.73,3,.87,5.91,1.69,8.88,2.5a2.36,2.36,0,0,0,1.18,0c2.93-.79,5.85-1.59,8.75-2.47a1.51,1.51,0,0,0,.89-1c.39-3.51.69-7,1-10.54.11-1.25.18-2.52.27-3.93h-18Z"/><path class="cls-1" d="M28.32,0V7.34H25.9V3.87L24.12,6.36,22.46,3.92V7.35H19.93V0h2.71l1.53,2.77L25.61,0Z"/><path class="cls-1" d="M10.79,0V7.35H8.34V5H6.14V7.35H3.63V0H6.1V2.4H8.32V0Z"/><path class="cls-1" d="M18.94,0l-.2,2.42-2.08.1V7.35H14.22V2.53L12,2.43V0Z"/><path class="cls-1" d="M32,0V5h3.53V7.37h-6V0Z"/></g></g></svg>