<svg xmlns="http://www.w3.org/2000/svg" viewBox="0 0 48.82 50.73"><defs><style>.cls-1{fill:#053ad1;}</style></defs><g id="Layer_2" data-name="Layer 2"><g id="Layer_1-2" data-name="Layer 1"><path class="cls-1" d="M10.28,5.09a37.44,37.44,0,0,0-.79,5.09,17.51,17.51,0,0,0,4.54,12,20.08,20.08,0,0,0,11.69,6.92c4.67.87,9.15.4,13.18-2.36a27.27,27.27,0,0,0,2.35-2,16.08,16.08,0,0,1-11.82,8.7C18.68,35.43,9.58,28,7.1,19.62c-1.19-4-1.1-8,1.09-11.69A30.69,30.69,0,0,1,10.28,5.09Z"/><path class="cls-1" d="M19.65,1.88c-.2.86-.44,1.68-.55,2.51a12.08,12.08,0,0,0,2.82,9.37,14.53,14.53,0,0,0,11.8,5.76A10.63,10.63,0,0,0,42,15.78,8.58,8.58,0,0,1,39.94,19a11.83,11.83,0,0,1-7.87,3.47A13.76,13.76,0,0,1,20,17.22,11.94,11.94,0,0,1,17.21,6.35,11.59,11.59,0,0,1,19.65,1.88Z"/><path class="cls-1" d="M15.32,45.42l1.12.12A13.38,13.38,0,0,1,16,47.12a.77.77,0,0,1-.61.28c-1.75,0-3.51.05-5.27,0-2.31-.06-3.52-1.31-3.42-3.63s.68-4.25,2.51-5.64a5.1,5.1,0,0,1,5.33-.61,3.58,3.58,0,0,1,1.92,4.36c-.25,1-.63,1.94-.95,2.92C15.44,45,15.39,45.17,15.32,45.42Zm-3.63,0a2.49,2.49,0,0,0,.82,0c.28-.11.67-.3.75-.54a27.35,27.35,0,0,0,.9-3.18,1.89,1.89,0,0,0-1-2.42,2.51,2.51,0,0,0-3.11.94,7.17,7.17,0,0,0-.89,2.44C8.87,44.91,9.41,45.45,11.69,45.45Z"/><path class="cls-1" d="M32.56,45.58c0,.14.06.17.06.19-.33,1.72-.33,1.74-2.07,1.73a22.57,22.57,0,0,1-2.85-.12,2.16,2.16,0,0,1-2.17-2.59A7.93,7.93,0,0,1,26.59,41a4.83,4.83,0,0,1,6-1.31,1.65,1.65,0,0,1,.72,1,21.63,21.63,0,0,1-.18,3.11c0,.12-.42.27-.65.28-1.31,0-2.61,0-3.92,0-.28,0-.74.18-.8.36a.79.79,0,0,0,.68,1,8.36,8.36,0,0,0,1.5.12C30.81,45.59,31.71,45.58,32.56,45.58Zm-4.41-3.1c.82,0,1.59,0,2.36,0a3,3,0,0,0,.78-.26c-.14-.32-.19-.76-.43-1A1.83,1.83,0,0,0,28.15,42.48Z"/><path class="cls-1" d="M40.93,9.3c-2.53,4.21-8.42,4.13-11.83,1.33S24.73,2.91,27.32,0c-.81,4.21.84,7.38,4.4,9.45C34.69,11.18,37.85,11.6,40.93,9.3Z"/><path class="cls-1" d="M25.49,39.3c-.25,1.25-.47,2.4-.71,3.54-.27,1.32-.59,2.64-.85,4-.08.43-.25.59-.69.59-1.18,0-2.35,0-3.53,0a2.09,2.09,0,0,1-2.26-2.64c.25-1.63.63-3.24.91-4.86.08-.49.31-.62.75-.59s.85,0,1.41,0c-.21,1.06-.39,2-.57,3-.13.64-.28,1.27-.37,1.92-.13.94.18,1.28,1.13,1.31,1.47,0,1.46,0,1.76-1.39s.63-2.78.88-4.18c.09-.57.34-.7.85-.66S25,39.3,25.49,39.3Z"/><path class="cls-1" d="M40.37,47.39c1.09-2-.13-3.66-.4-5.52.69,0,1.33,0,2,0,.14,0,.32.2.39.35a10,10,0,0,1,.31,1c.48-.67.89-1.22,1.27-1.78.65-.92,1.3-1.84,1.91-2.79a1.1,1.1,0,0,1,1.11-.58c.57,0,1.15,0,1.89,0-.58.79-1.09,1.48-1.61,2.17-.94,1.26-1.88,2.53-2.86,3.77a5.73,5.73,0,0,0-1.41,2.77.57.57,0,0,1-.7.57C41.69,47.36,41.14,47.39,40.37,47.39Z"/><path class="cls-1" d="M33.74,47.39l.9-4.3c.22-1.05.47-2.09.66-3.15.09-.48.3-.65.8-.64,1.33,0,2.66,0,4,0s1.81.34,2,1.89H38.63c-1.85,0-1.47-.17-1.86,1.49-.3,1.24-.57,2.49-.75,3.75-.11.75-.41,1-1.16.94A10.34,10.34,0,0,0,33.74,47.39Z"/><path class="cls-1" d="M0,50.73A16,16,0,0,1,.37,49.1a.62.62,0,0,1,.5-.29,1.23,1.23,0,0,0,1.32-1.1c.41-1.59.82-3.2,1.09-4.82.15-.85.47-1.16,1.3-1a8.62,8.62,0,0,0,1.15,0C5.5,43,5.3,44,5.08,44.94c-.26,1.17-.47,2.36-.81,3.5-.56,1.89-1.18,2.3-3.15,2.29Z"/><path class="cls-1" d="M6.23,39.4c-.18,1.9-.39,2.05-2.39,1.69C3.75,39.39,4.35,39,6.23,39.4Z"/></g></g></svg>