<svg xmlns="http://www.w3.org/2000/svg" viewBox="0 0 38.74 54.55"><defs><style>.cls-1{fill:#053ad1;}</style></defs><g id="Layer_2" data-name="Layer 2"><g id="Layer_2-2" data-name="Layer 2"><path class="cls-1" d="M38.74,10.92q-1.25,13.86-2.49,27.71c-.31,3.41-.61,6.82-.83,10.24a1.7,1.7,0,0,1-1.54,1.81c-4.57,1.19-9.09,2.52-13.64,3.76a3.57,3.57,0,0,1-1.75,0c-4.68-1.26-9.34-2.59-14-3.85a1.3,1.3,0,0,1-1.11-1.33q-.79-9.52-1.63-19T0,10.92ZM18.93,41l-2.13-.53c-2.82-.71-2.8-.72-3.11-3.61,0-.36-.33-1-.54-1-1.48-.09-3-.05-4.53-.05.24,2.47.49,4.66.65,6.86a1.08,1.08,0,0,0,1,1.11c3,.82,6,1.67,9,2.52,0,1.26,0,2.52,0,3.77,0,.9.3,1.21,1.16,1,3.62-1,7.24-2,10.86-3a1.23,1.23,0,0,0,1-1.37c0-1.3.17-2.59.28-3.88.33-3.52.68-7,1-10.55.21-2.32.36-4.65.58-7q.47-5.08,1-10.16c.11-1.08-.34-1.31-1.33-1.3-4.43.05-8.86,0-13.29,0-.38,0-.76,0-1.3.08v1.47l-.26.27H10.63l-.25,0a11,11,0,0,0-.23,1.14c-.35,3.62-.7,7.24-1,10.87-.16,1.87-.28,3.75-.43,5.79H19.25c0,2.06,0,4.12,0,6.18A7,7,0,0,1,18.93,41Z"/><path class="cls-1" d="M26,7.25H19.75L19.53,7V5.71s.1,0,.09-.06a.67.67,0,0,0-.07-.18l2.95-.35C21.77,3.34,19,2.65,19.54,0h6.67V2H23.14l3.08,3.49s-.07.08-.06.09a1,1,0,0,0,.13.16V7Z"/><path class="cls-1" d="M12.72,4.94h3.15V.24L16.11,0h1.83l.25.24V7l-.25.23H12.71L12.45,7V5.2Z"/><path class="cls-1" d="M38.74,10.92H0a4.8,4.8,0,0,1,1-.24H37.7A4.89,4.89,0,0,1,38.74,10.92Z"/><path class="cls-1" d="M16.11,0l-.24.24Z"/><path class="cls-1" d="M18.19.24,17.94,0Z"/><path class="cls-1" d="M12.72,4.94l-.27.26Z"/><path class="cls-1" d="M19.55,5.47a.67.67,0,0,1,.07.18s-.05,0-.09.06A.23.23,0,0,1,19.55,5.47Z"/><path class="cls-1" d="M26.29,5.72a1,1,0,0,1-.13-.16s0-.06.06-.09Z"/><path class="cls-1" d="M12.45,7l.26.23Z"/><path class="cls-1" d="M17.94,7.25,18.19,7Z"/><path class="cls-1" d="M19.53,7l.22.22Z"/><path class="cls-1" d="M26,7.25,26.3,7Z"/><path class="cls-1" d="M19.24,15.36V13.89c.54,0,.92-.08,1.3-.08,4.43,0,8.86,0,13.29,0,1,0,1.44.22,1.33,1.3q-.54,5.07-1,10.16c-.22,2.32-.37,4.65-.58,7-.32,3.52-.67,7-1,10.55-.11,1.29-.27,2.58-.28,3.88a1.23,1.23,0,0,1-1,1.37c-3.62,1-7.24,2-10.86,3-.86.24-1.2-.07-1.16-1,.05-1.25,0-2.51,0-3.77a.23.23,0,0,0,0-.14c2.46-.63,4.91-1.35,7.4-1.86,1.88-.39,2.88-1.06,2.94-3.29.12-4.13.67-8.25,1.05-12.57H19.77l-.52-.28V20.88l.26-.08,5.77.66c.1,1.24.15,2.41.32,3.57.05.38.39,1,.63,1,1.45.1,2.91.05,4.41.05l-1-10.49H19.76l-.51-.27Z"/><path class="cls-1" d="M19.25,41.21,18.93,41a7,7,0,0,0,.3-1.32c0-2.06,0-4.12,0-6.18v-.12h6c-.2,2.1-.33,4-.57,5.8,0,.29-.5.64-.84.75C22.34,40.38,20.79,40.78,19.25,41.21Z"/><path class="cls-1" d="M10.63,15.63a.69.69,0,0,1-.25,0Z"/><path class="cls-1" d="M19.24,15.62H19l.26-.27h0A2.26,2.26,0,0,0,19.24,15.62Z"/><path class="cls-1" d="M19,28.42H14.07l.67-7.36c1.36,0,2.63,0,3.89,0a2.82,2.82,0,0,0,.61-.18q0,3.63,0,7.26Z"/><path class="cls-1" d="M19,28.42l.27-.28.52.28-.53.12Z"/><path class="cls-1" d="M19.76,15.63l-.26.1-.26-.11a2.26,2.26,0,0,1,0-.26Z"/></g></g></svg>