<svg xmlns="http://www.w3.org/2000/svg" viewBox="0 0 54.55 68.77"><defs><style>.cls-1{fill:none;stroke:#0d32ff;stroke-miterlimit:10;stroke-width:0.75px;}.cls-2{fill:#0d32ff;}</style></defs><g id="Layer_2" data-name="Layer 2"><g id="Layer_1-2" data-name="Layer 1"><path class="cls-1" d="M.38,53.1a14.76,14.76,0,0,1,1.18-5.87,15.88,15.88,0,0,1,3.28-4.92A15.49,15.49,0,0,1,9.71,39a14.55,14.55,0,0,1,6-1.23A14.42,14.42,0,0,1,21.58,39a16,16,0,0,1,8.26,8.28A14.61,14.61,0,0,1,31,53.1a14.82,14.82,0,0,1-1.2,5.95,15.37,15.37,0,0,1-3.34,4.88,15.88,15.88,0,0,1-4.92,3.28,14.89,14.89,0,0,1-5.91,1.18,15,15,0,0,1-6-1.18,15.31,15.31,0,0,1-8.15-8.16A15,15,0,0,1,.38,53.1Zm6.11,0a9.61,9.61,0,0,0,.72,3.73,9.38,9.38,0,0,0,2,3.06,9,9,0,0,0,6.66,2.79A8.67,8.67,0,0,0,19.44,62a8.8,8.8,0,0,0,2.88-2.06,10.12,10.12,0,0,0-.06-13.66,8.81,8.81,0,0,0-2.92-2.06,9.07,9.07,0,0,0-10.2,2.06,9.39,9.39,0,0,0-1.95,3.08A10.06,10.06,0,0,0,6.49,53.1Z"/><path class="cls-2" d="M34.56,63.17a2.8,2.8,0,0,1,1.95-.82,2.93,2.93,0,0,1,2.77,2.88,2.63,2.63,0,0,1-.89,2.07,2.85,2.85,0,0,1-1.88.77,2.92,2.92,0,0,1-1.95-.77,2.63,2.63,0,0,1-.89-2.07A2.72,2.72,0,0,1,34.56,63.17Z"/><path class="cls-2" d="M25.8,26.81a13.86,13.86,0,0,1,1.11-5.5A15,15,0,0,1,30,16.7a14.37,14.37,0,0,1,4.57-3.15,14,14,0,0,1,11.12,0,15,15,0,0,1,7.75,7.76,13.7,13.7,0,0,1,1.12,5.5,14,14,0,0,1-1.12,5.59A14.41,14.41,0,0,1,50.29,37,14.68,14.68,0,0,1,45.68,40a14.48,14.48,0,0,1-11.12,0A14.17,14.17,0,0,1,30,37a14.4,14.4,0,0,1-3.08-4.56A14.12,14.12,0,0,1,25.8,26.81Zm5.74,0a9,9,0,0,0,.67,3.5,8.9,8.9,0,0,0,1.87,2.87,8.53,8.53,0,0,0,6.25,2.62,8.17,8.17,0,0,0,3.35-.69,8.06,8.06,0,0,0,2.69-1.93,9.24,9.24,0,0,0,1.8-2.87,9.46,9.46,0,0,0-1.86-9.94,8.22,8.22,0,0,0-2.73-1.93,8.72,8.72,0,0,0-6.8,0A8.45,8.45,0,0,0,34,20.37a8.78,8.78,0,0,0-1.83,2.89A9.42,9.42,0,0,0,31.54,26.81Z"/><path class="cls-1" d="M23,7.37a11.62,11.62,0,0,0-2.46-3.62A11.77,11.77,0,0,0,17,1.28a10.66,10.66,0,0,0-4.35-.9,10.73,10.73,0,0,0-4.38.9A11.45,11.45,0,0,0,4.65,3.75,11.64,11.64,0,0,0,2.24,7.37a10.9,10.9,0,0,0-.87,4.32,11,11,0,0,0,.87,4.38,11.29,11.29,0,0,0,6,6,11,11,0,0,0,4.38.87A11,11,0,0,0,17,22.07a11.63,11.63,0,0,0,3.61-2.42A11.22,11.22,0,0,0,23,16.07a10.89,10.89,0,0,0,.89-4.38A10.74,10.74,0,0,0,23,7.37Z"/></g></g></svg>