<svg xmlns="http://www.w3.org/2000/svg" viewBox="0 0 320.25 63.89"><defs><style>.cls-1{fill:#0d32ff;opacity:0.97;}.cls-2,.cls-3{fill:none;stroke:#fff;stroke-miterlimit:10;}.cls-2{stroke-width:1.5px;}.cls-3{stroke-linecap:round;stroke-width:2px;}</style></defs><g id="Layer_2" data-name="Layer 2"><g id="Layer_1-2" data-name="Layer 1"><rect class="cls-1" width="320.25" height="63.89" rx="21.71"/><path class="cls-2" d="M101.06,20.62c-7.32,0-13.25,4.88-13.25,10.9A9.92,9.92,0,0,0,91.4,39l-1.88,4.29,5.67-2a15.58,15.58,0,0,0,5.87,1.13c7.32,0,13.26-4.88,13.26-10.9S108.38,20.62,101.06,20.62Z"/><circle class="cls-2" cx="281.06" cy="25.49" r="5.82"/><path class="cls-2" d="M269.25,44.22c0-9.4,4.23-9.4,9.41-9.4h4.8c5.18,0,9.41,0,9.41,9.4"/><rect class="cls-2" x="209.8" y="27.54" width="22.52" height="17.68" rx="3.43"/><path class="cls-2" d="M214.61,27.82c0-6.57,2.88-9.15,6.43-9.15s6.86,1.58,6.44,9.15"/><path class="cls-2" d="M148.26,27.78c-.28-2.84,2.5-6.59,6.19-6.87a6.85,6.85,0,0,1,5.74,2.49c.19.21.35.44.51.65.32.42.41.43.72,0a7.63,7.63,0,0,1,2.86-2.46,6.53,6.53,0,0,1,7.9,1.69c2.31,2.67,2.07,6.38.47,9.16a26.3,26.3,0,0,1-5,5.77c-1.3,1.25-2.64,2.46-4,3.69-.77.72-1.53,1.44-2.27,2.17a.48.48,0,0,1-.79,0c-1.91-1.81-3.8-3.64-5.74-5.41a35.73,35.73,0,0,1-4.67-5A9.23,9.23,0,0,1,148.26,27.78Z"/><line class="cls-3" x1="27.38" y1="25.71" x2="54.74" y2="25.71"/><line class="cls-3" x1="27.38" y1="32.98" x2="54.74" y2="32.98"/><line class="cls-3" x1="27.38" y1="40.25" x2="54.74" y2="40.25"/></g></g></svg>