<svg xmlns="http://www.w3.org/2000/svg" viewBox="0 0 546.78 193.78"><defs><style>.cls-1{opacity:0.97;}.cls-2{fill:none;stroke:#fff;stroke-miterlimit:10;opacity:0.97;}</style></defs><g id="Layer_2" data-name="Layer 2"><g id="Layer_1-2" data-name="Layer 1"><g class="cls-1"><path class="cls-2" d="M45,37.27H10.13V10.68H114.62V37.27H79.92C82,56.48,93.12,75.7,121.47,85.05l-16,26c-20.57-6.33-34.18-18.8-42.59-34.27C54.58,94.29,40.25,108.52,18,115.79L.78,89.41C31.42,79.65,43,57.94,45,37.27Zm54.85,80.39c41.85,0,67.3,14,67.3,37.81s-25.45,37.81-67.3,37.81c-41.34,0-67-14.13-66.89-37.81C32.87,131.68,58.53,117.66,99.87,117.66Zm0,50.48c23.16,0,34.17-3.63,34.27-12.67-.1-9.14-11.11-12.78-34.27-12.67-22.75-.11-33.86,3.53-33.66,12.67C66,164.51,77.12,168.14,99.87,168.14Zm66.89-53.59H133.52V72.17h-24.1V45.37h24.1V.5h33.24Z"/><path class="cls-2" d="M230.53,12.76c15.78,0,28.25,10,35.62,27.83H283.5V2.79h31.37V184.34H283.5V127.42H266.26c-7.38,18.08-19.84,28.26-35.73,28.26-25.66,0-42.28-27-42.17-71.67C188.25,39.66,204.87,12.76,230.53,12.76Zm0,110.93c8.1,0,12.77-11.12,12.88-39.68-.11-28.25-4.78-39.78-12.88-39.68-8.42-.1-12.36,11.43-12.26,39.68C218.17,112.57,222.11,123.69,230.53,123.69Zm43-39.68a139.14,139.14,0,0,1-.94,16.62H283.5V67H272.59A145.05,145.05,0,0,1,273.53,84Zm81.22,108.64H323V.5h31.78Z"/><path class="cls-2" d="M546.28,123.06H371V96.89H546.28ZM458.61,5.9c42.38,0,70.94,15.37,71,40.09-.11,25-28.67,40.72-71,40.72C415.82,86.71,387.15,71,387.36,46,387.15,21.27,415.82,5.9,458.61,5.9ZM391.1,133.45h33.45v29.91H525.92V190H391.1ZM458.61,59.7c23.68.11,36.46-3.84,36.56-13.71-.1-9.34-12.88-13.81-36.56-13.91-24,.1-36.77,4.57-36.56,13.91C421.84,55.86,434.62,59.81,458.61,59.7Z"/></g></g></g></svg>