<svg xmlns="http://www.w3.org/2000/svg" viewBox="0 0 180.41 126.32"><defs><style>.cls-1{fill:#f2c900;}.cls-2{fill:#fff;}.cls-3{fill:#ffeb12;}</style></defs><g id="Layer_2" data-name="Layer 2"><g id="Layer_1-2" data-name="Layer 1"><path class="cls-1" d="M139.51,12.52H71.87L66.19,2.89A5.65,5.65,0,0,0,61.35,0h-43a5.67,5.67,0,0,0-4.89,3L7.91,12.72A9.86,9.86,0,0,0,0,22.38V126.32H149.37V22.38A9.87,9.87,0,0,0,139.51,12.52Z"/><rect class="cls-2" x="5.43" y="20.76" width="138.51" height="100.3"/><path class="cls-3" d="M151.52,126.32H0L28.7,45.86a15.91,15.91,0,0,1,15-10.58H171.82a8.58,8.58,0,0,1,8.08,11.46Z"/></g></g></svg>