<svg xmlns="http://www.w3.org/2000/svg" viewBox="0 0 214.08 150"><defs><style>.cls-1{fill:#f2c900;}.cls-2{fill:#fff;}.cls-3{fill:#ffeb12;}</style></defs><g id="Layer_2" data-name="Layer 2"><g id="Layer_1-2" data-name="Layer 1"><path class="cls-1" d="M168.11,14.86H86.6L79.77,3.43A6.84,6.84,0,0,0,73.93,0H22.13a6.84,6.84,0,0,0-5.88,3.52L9.53,15.1A11.76,11.76,0,0,0,0,26.58V150H180V26.58A11.81,11.81,0,0,0,168.11,14.86Z"/><rect class="cls-2" x="6.54" y="24.66" width="166.91" height="119.1"/><path class="cls-3" d="M179.8,150H0L34.05,54.45a18.91,18.91,0,0,1,17.8-12.56h152a10.19,10.19,0,0,1,9.59,13.61Z"/></g></g></svg>