<svg xmlns="http://www.w3.org/2000/svg" viewBox="0 0 225.49 443.9"><defs><style>.cls-1{fill:#e8efff;}.cls-2{fill:#fff;}</style></defs><g id="Layer_2" data-name="Layer 2"><g id="Layer_1-2" data-name="Layer 1"><rect class="cls-1" width="225.49" height="443.9" rx="46"/><rect class="cls-2" x="12.92" y="10.89" width="199.64" height="422.13" rx="37.48"/><circle class="cls-1" cx="52.48" cy="396.08" r="12.05"/><circle class="cls-1" cx="92.66" cy="396.08" r="12.05"/><circle class="cls-1" cx="132.83" cy="396.08" r="12.05"/><circle class="cls-1" cx="173" cy="396.08" r="12.05"/><rect class="cls-1" x="23.33" y="41.91" width="178.84" height="51.32"/><rect class="cls-1" x="23.33" y="104.12" width="178.84" height="5.44"/><path class="cls-1" d="M50.54,6.15H174.95a0,0,0,0,1,0,0v15a6,6,0,0,1-6,6H56.58a6,6,0,0,1-6-6v-15A0,0,0,0,1,50.54,6.15Z"/><rect class="cls-1" x="23.33" y="120.44" width="178.84" height="122.07"/><rect class="cls-1" x="27.6" y="259.63" width="80.86" height="101.08"/><rect class="cls-1" x="117.02" y="259.63" width="80.86" height="101.08"/><rect class="cls-2" x="99.14" y="15.48" width="27.21" height="3.89"/><circle class="cls-2" cx="138.4" cy="17.42" r="3.11"/></g></g></svg>