<svg xmlns="http://www.w3.org/2000/svg" xmlns:xlink="http://www.w3.org/1999/xlink" viewBox="0 0 704.5 1312.06"><defs><style>.cls-1{fill:#e8efff;}.cls-2{fill:#fff;}.cls-3{font-size:147.41px;fill:#0d32ff;font-family:Sunflower-Medium, Sunflower;font-weight:500;opacity:0.97;}.cls-4{fill:#e0e0e0;}.cls-5{fill:#c5ccdf;}.cls-6,.cls-9{fill:none;}.cls-6{stroke-miterlimit:10;stroke-width:0.94px;stroke:url(#linear-gradient);}.cls-7{fill:#878787;}.cls-8{fill:#348fc1;}.cls-9{stroke:#000;stroke-linecap:round;stroke-linejoin:round;stroke-width:0.79px;}.cls-10{fill:#fd1d1d;}</style><linearGradient id="linear-gradient" x1="69.12" y1="179.71" x2="103.23" y2="232.71" gradientUnits="userSpaceOnUse"><stop offset="0" stop-color="#fcb045"/><stop offset="0.09" stop-color="#fc9e40"/><stop offset="0.26" stop-color="#fc7033"/><stop offset="0.5" stop-color="#fd251f"/><stop offset="0.52" stop-color="#fd1d1d"/><stop offset="0.67" stop-color="#ce2857"/><stop offset="0.82" stop-color="#a63289"/><stop offset="0.94" stop-color="#8c38a8"/><stop offset="1" stop-color="#833ab4"/></linearGradient></defs><g id="Layer_2" data-name="Layer 2"><g id="Layer_2-2" data-name="Layer 2"><rect class="cls-1" y="54.21" width="704.5" height="1257.85" rx="119.71"/><rect class="cls-2" x="29.38" y="85.06" width="651.29" height="1196.35" rx="96.95"/><rect class="cls-2" x="29.38" y="905.14" width="651.37" height="237.81"/><rect class="cls-1" x="63.31" y="172.97" width="583.32" height="145.42"/><rect class="cls-1" x="63.31" y="349.24" width="583.32" height="15.42"/><path class="cls-1" d="M184,71.62H525.93a21,21,0,0,1,21,21v0a35.29,35.29,0,0,1-35.29,35.29H198.32A35.29,35.29,0,0,1,163,92.61v0A21,21,0,0,1,184,71.62Z"/><rect class="cls-1" x="63.31" y="395.51" width="583.32" height="345.91"/><rect class="cls-1" x="77.26" y="789.89" width="263.76" height="286.42"/><rect class="cls-1" x="368.92" y="789.89" width="263.76" height="286.42"/><rect class="cls-2" x="310.59" y="98.06" width="88.77" height="11.02" rx="2.26"/><ellipse class="cls-2" cx="438.67" cy="103.57" rx="10.14" ry="8.81"/><text class="cls-3" transform="translate(153.22 115.27)"> </text><rect class="cls-2" x="29.38" y="161.18" width="651.37" height="967.64"/><rect class="cls-4" x="29.38" y="252.13" width="651.37" height="654.24"/><rect class="cls-2" x="29.38" y="157.9" width="651.37" height="95.04"/><path class="cls-5" d="M113.38,206.21A27.21,27.21,0,1,1,86.17,179,27.08,27.08,0,0,1,113.38,206.21Z"/><path class="cls-2" d="M109.13,220.82a27.22,27.22,0,0,1-46.19-.43,36.16,36.16,0,0,1,9.37-4.79c5-1.44,7-2.08,7.54-3.8s.79-5.83-1.94-8.05-3.38-12.07-1.44-15.52a10,10,0,0,1,4-3.92A11.1,11.1,0,0,1,85.73,183h0A10.67,10.67,0,0,1,95,188.23c2,3.45,1.3,13.29-1.43,15.52s-2.45,6.32-1.94,8.05,2.58,2.36,7.54,3.8A37.52,37.52,0,0,1,109.13,220.82Z"/><path class="cls-6" d="M117.21,206.21a31,31,0,1,1-31-31A30.8,30.8,0,0,1,117.21,206.21Z"/><path class="cls-7" d="M642.35,192.18a2.94,2.94,0,1,1-2.94-2.94A2.94,2.94,0,0,1,642.35,192.18Z"/><path class="cls-7" d="M642.35,206.14a2.94,2.94,0,1,1-2.94-2.93A2.94,2.94,0,0,1,642.35,206.14Z"/><path class="cls-7" d="M642.35,220.11a2.94,2.94,0,1,1-2.94-2.94A2.94,2.94,0,0,1,642.35,220.11Z"/><path class="cls-7" d="M374.38,947.47a3.95,3.95,0,1,1,3.94-4A4,4,0,0,1,374.38,947.47Z"/><path class="cls-7" d="M355.59,947.47a3.95,3.95,0,1,1,3.94-4A4,4,0,0,1,355.59,947.47Z"/><path class="cls-8" d="M336.8,947.47a3.95,3.95,0,1,1,3.94-4A4,4,0,0,1,336.8,947.47Z"/><path class="cls-9" d="M150,941a13.77,13.77,0,0,1-1.65,6.6v11.16s-3.52-3.06-6-5.19A14.18,14.18,0,1,1,150,941Z"/><path class="cls-10" d="M89.33,930.47c-6.68-7.41-13.63-1.38-15,0-1.41-1.38-8.37-7.41-15.05,0-7.48,8.3,3.66,22.43,14.88,28.27.1,0,.11,0,.17,0C85.5,952.91,96.81,938.77,89.33,930.47Z"/><polygon class="cls-9" points="200.46 957.05 197.47 938.64 182.42 928.57 212.34 928.57 200.46 957.05"/><line class="cls-9" x1="197.47" y1="938.64" x2="212.27" y2="928.88"/><polygon class="cls-9" points="642.27 957.71 631.17 951 619.35 957.71 619.35 926.98 642.27 926.98 642.27 957.71"/></g></g></svg>