<svg xmlns="http://www.w3.org/2000/svg" viewBox="0 0 700 1249.82"><defs><style>.cls-1{fill:#e8efff;}.cls-2{fill:#fff;}.cls-3{fill:#e0e0e0;}.cls-4{fill:#878787;}.cls-5{fill:#348fc1;}.cls-6,.cls-9{fill:none;}.cls-6{stroke:#000;stroke-linecap:round;stroke-linejoin:round;stroke-width:0.79px;}.cls-7{fill:#fd1d1d;}.cls-8{fill:#0d32ff;}.cls-9{stroke:#fff;stroke-miterlimit:10;stroke-width:0.75px;}.cls-10{font-size:20.7px;font-family:Pretendard-Bold-KSCpc-EUC-H, Pretendard;}.cls-11{font-size:13px;font-family:Pretendard-SemiBold-KSCpc-EUC-H, Pretendard;}.cls-12{letter-spacing:-0.03em;}</style></defs><g id="Layer_2" data-name="Layer 2"><g id="Layer_2-2" data-name="Layer 2"><rect class="cls-1" width="700" height="1249.82" rx="119.71"/><rect class="cls-2" x="27" y="30.65" width="646" height="1186.64" rx="96.95"/><path class="cls-1" d="M182.84,17.3H522.57a20.85,20.85,0,0,1,20.85,20.85v0a35.07,35.07,0,0,1-35.07,35.07H197.06A35.07,35.07,0,0,1,162,38.15v0A20.85,20.85,0,0,1,182.84,17.3Z"/><rect class="cls-2" x="308.61" y="43.57" width="88.2" height="10.95" rx="5.47"/><circle class="cls-2" cx="433.78" cy="49.05" r="8"/><rect class="cls-1" x="65.35" y="293.53" width="577.62" height="15.27"/><rect class="cls-1" x="65.35" y="339.35" width="577.62" height="342.53"/><rect class="cls-3" x="27" y="197.37" width="646" height="646"/><path class="cls-4" d="M638.72,138a2.91,2.91,0,1,1-2.91-2.91A2.9,2.9,0,0,1,638.72,138Z"/><path class="cls-4" d="M638.72,151.84a2.91,2.91,0,1,1-2.91-2.91A2.9,2.9,0,0,1,638.72,151.84Z"/><path class="cls-4" d="M638.72,165.67a2.91,2.91,0,1,1-2.91-2.91A2.9,2.9,0,0,1,638.72,165.67Z"/><path class="cls-4" d="M373.37,885.91a3.91,3.91,0,1,1,3.91-3.9A3.9,3.9,0,0,1,373.37,885.91Z"/><path class="cls-4" d="M354.77,885.91a3.91,3.91,0,1,1,3.9-3.9A3.91,3.91,0,0,1,354.77,885.91Z"/><path class="cls-5" d="M336.16,885.91a3.91,3.91,0,1,1,3.91-3.9A3.91,3.91,0,0,1,336.16,885.91Z"/><path class="cls-6" d="M151.2,877.53a13.64,13.64,0,0,1-1.63,6.54v11s-3.49-3-5.94-5.14a14,14,0,1,1-6.49-26.5A14.05,14.05,0,0,1,151.2,877.53Z"/><path class="cls-7" d="M91.11,867.08c-6.61-7.34-13.5-1.37-14.9,0-1.4-1.37-8.29-7.34-14.9,0-7.41,8.22,3.63,22.21,14.74,28,.1,0,.1,0,.16,0C87.32,889.3,98.52,875.3,91.11,867.08Z"/><polygon class="cls-6" points="201.16 893.39 198.2 875.17 183.29 865.2 212.92 865.2 201.16 893.39"/><line class="cls-6" x1="198.2" y1="875.17" x2="212.85" y2="865.51"/><polygon class="cls-6" points="638.64 896.05 627.66 889.41 615.95 896.05 615.95 865.63 638.64 865.63 638.64 896.05"/><path class="cls-8" d="M114.93,151.91A26.94,26.94,0,1,1,88,125,26.74,26.74,0,0,1,114.93,151.91Z"/><path class="cls-9" d="M75,161.92a8,8,0,0,1,.63-3.14A8.45,8.45,0,0,1,80,154.35a8,8,0,0,1,6.35,0,8.79,8.79,0,0,1,2.63,1.8,8.46,8.46,0,0,1,1.79,2.63,7.8,7.8,0,0,1,.64,3.14,7.91,7.91,0,0,1-.64,3.19A8.26,8.26,0,0,1,89,167.72a8.46,8.46,0,0,1-2.63,1.75,8.2,8.2,0,0,1-6.35,0,8.12,8.12,0,0,1-5-7.55Zm3.27,0a5.15,5.15,0,0,0,1.45,3.64,4.89,4.89,0,0,0,3.57,1.49,4.62,4.62,0,0,0,3.45-1.49,5.36,5.36,0,0,0,1-1.64,5.47,5.47,0,0,0,.37-2,5.24,5.24,0,0,0-.39-2,5.43,5.43,0,0,0-1-1.65,4.92,4.92,0,0,0-5.45-1.1,4.8,4.8,0,0,0-1.57,1.1,5.27,5.27,0,0,0-1,1.65A5.63,5.63,0,0,0,78.28,161.92Z"/><path class="cls-2" d="M93.3,167.31a1.54,1.54,0,0,1,1-.44,1.48,1.48,0,0,1,1,.44,1.46,1.46,0,0,1,.48,1.1,1.38,1.38,0,0,1-.48,1.11,1.54,1.54,0,0,1-1,.41,1.6,1.6,0,0,1-1-.41,1.4,1.4,0,0,1-.47-1.11A1.48,1.48,0,0,1,93.3,167.31Z"/><path class="cls-2" d="M88.62,147.86a7.37,7.37,0,0,1,.59-3,7.76,7.76,0,0,1,1.65-2.47,7.66,7.66,0,0,1,2.44-1.68,7.31,7.31,0,0,1,3-.62,7.2,7.2,0,0,1,3,.62,8,8,0,0,1,2.47,1.68,7.84,7.84,0,0,1,1.68,2.47,7.63,7.63,0,0,1,0,5.93,7.54,7.54,0,0,1-1.68,2.45,8.1,8.1,0,0,1-2.47,1.65,7.52,7.52,0,0,1-3,.59,7.63,7.63,0,0,1-3-.59,7.73,7.73,0,0,1-2.44-1.65,7.59,7.59,0,0,1-2.24-5.43Zm3.06,0a4.87,4.87,0,0,0,.36,1.87,4.94,4.94,0,0,0,1,1.53,4.59,4.59,0,0,0,1.5,1,4.66,4.66,0,0,0,1.85.36,4.44,4.44,0,0,0,1.79-.36,4.35,4.35,0,0,0,1.44-1,5,5,0,0,0,1.31-3.4,5,5,0,0,0-.36-1.91,4.76,4.76,0,0,0-1-1.54,4.33,4.33,0,0,0-1.46-1,4.54,4.54,0,0,0-5.12,1A4.76,4.76,0,0,0,92,146,5.19,5.19,0,0,0,91.68,147.86Z"/><path class="cls-9" d="M87.14,137.45a6.3,6.3,0,0,0-1.32-1.94,6.37,6.37,0,0,0-1.93-1.32,5.94,5.94,0,0,0-4.68,0,6.16,6.16,0,0,0-1.91,1.32,6.24,6.24,0,0,0-1.3,1.94,6.11,6.11,0,0,0,0,4.65,6.1,6.1,0,0,0,3.21,3.21,6.06,6.06,0,0,0,4.68,0A6.28,6.28,0,0,0,85.82,144a6.09,6.09,0,0,0,1.32-1.92,6,6,0,0,0,0-4.65Z"/><text class="cls-10" transform="translate(130.08 150.85)">JYE DESIGN</text><text class="cls-11" transform="translate(130.08 168.92)">PO<tspan class="cls-12" x="17.7" y="0">P</tspan><tspan x="25.37" y="0">-UP</tspan></text></g></g></svg>