<svg xmlns="http://www.w3.org/2000/svg" viewBox="0 0 49.54 48.45"><defs><style>.cls-1{fill:#053ad1;}</style></defs><g id="Layer_2" data-name="Layer 2"><g id="Layer_2-2" data-name="Layer 2"><path class="cls-1" d="M49.54,7.64V40.81a3.26,3.26,0,0,0-.2.48,8.6,8.6,0,0,1-5.61,6.61c-.59.23-1.22.37-1.83.55H7.64a3.26,3.26,0,0,0-.48-.2A8.49,8.49,0,0,1,.64,42.84c-.27-.65-.43-1.35-.64-2V7.64a2.39,2.39,0,0,0,.19-.48A8.58,8.58,0,0,1,5.71.59C6.33.34,7,.19,7.64,0H41.9a4.94,4.94,0,0,0,.49.19A8.55,8.55,0,0,1,49,5.81C49.21,6.4,49.36,7,49.54,7.64ZM11.25,34.07h4.13c.07-1.11.14-2.22.19-3.33,0-.36,0-.73,0-1.09V27.39c1.82-.13,3.43-.13,5-.38a6.85,6.85,0,0,0,6.11-7,6.84,6.84,0,0,0-5.46-7.28c-3.28-.82-6.62-.2-10-.28Zm28.83-12c0-1.16.05-2.18,0-3.19a1.16,1.16,0,0,0-.64-.84,11.25,11.25,0,0,0-7.07,0,4.68,4.68,0,0,0-3.26,4.12,4.47,4.47,0,0,0,2.5,4.58c.79.45,1.63.8,2.45,1.19a10.12,10.12,0,0,1,1.75.85A1.7,1.7,0,0,1,36.42,30c0,.31-.6.73-1,.81a5.38,5.38,0,0,1-2.15.09c-1.4-.26-2.78-.68-4.24-1.05,0,1.07,0,2.15,0,3.23a1.11,1.11,0,0,0,.56.79,11.08,11.08,0,0,0,8.59-.07,4.58,4.58,0,0,0,2.7-4.28,4.25,4.25,0,0,0-2.33-4c-.86-.48-1.76-.86-2.65-1.28a14.27,14.27,0,0,1-2-1A1.47,1.47,0,0,1,33.38,22a1.26,1.26,0,0,1,.89-.76,9,9,0,0,1,2.48,0C37.81,21.41,38.84,21.75,40.08,22.06Z"/><path class="cls-1" d="M15.63,23.59c0-2.41,0-4.51,0-6.6a.88.88,0,0,1,.63-.61,18.08,18.08,0,0,1,3.46.22,3.06,3.06,0,0,1,2.55,3.2,3.06,3.06,0,0,1-2.42,3.3A39.21,39.21,0,0,1,15.63,23.59Z"/></g></g></svg>