<svg xmlns="http://www.w3.org/2000/svg" xmlns:xlink="http://www.w3.org/1999/xlink" viewBox="0 0 212.54 161.97"><defs><style>.cls-1{fill:#1a1a1a;}.cls-2{fill:url(#linear-gradient);}.cls-3{fill:url(#linear-gradient-2);}.cls-4{fill:url(#linear-gradient-3);}</style><linearGradient id="linear-gradient" x1="159.53" y1="73.38" x2="105.4" y2="73.38" gradientUnits="userSpaceOnUse"><stop offset="0" stop-color="#f7c200"/><stop offset="0.96" stop-color="#e6561a"/></linearGradient><linearGradient id="linear-gradient-2" x1="107.14" y1="0" x2="107.14" y2="62.53" xlink:href="#linear-gradient"/><linearGradient id="linear-gradient-3" x1="53.01" y1="68.25" x2="103.37" y2="68.25" xlink:href="#linear-gradient"/></defs><g id="Layer_2" data-name="Layer 2"><g id="Layer_2-2" data-name="Layer 2"><path class="cls-1" d="M35.74,136.2V145h6.57V136.2h9.51v25.1H42.31v-9H35.68v9H26.25V136.2Zm33.95,25.55c-9.25.19-14.6-4-14.6-13.14,0-7.83,4.44-12.48,13-12.78,8-.27,14.5,3.47,14.69,12.41C83,156.53,78.26,161.56,69.69,161.75Zm3.47-13c0-4-1.88-7.25-4.2-7.25s-4.2,3.24-4.2,7.25S66.64,156,69,156,73.16,152.79,73.16,148.79Zm96.9,13c-9.25.19-14.6-4-14.6-13.14,0-7.83,4.44-12.48,13-12.78,8-.27,14.5,3.47,14.69,12.41C183.36,156.53,178.63,161.56,170.06,161.75Zm3.47-13c0-4-1.88-7.25-4.2-7.25s-4.2,3.24-4.2,7.25S167,156,169.33,156,173.53,152.79,173.53,148.79ZM89.89,161.3l10.64-.1L104.46,145l4.1,16.31H119l5.91-25.1h-8.38l-3.24,16.42-3.94-16.42H100.3l-4,16.42-3.2-16.42H84Zm61.34-1.87c-2.22,1.81-5.34,1.9-8.21,1.89l-14.22,0V136.2l16.4,0a12.58,12.58,0,0,1,3.06.25c4.09,1,6.27,6,3.69,9.49a6.09,6.09,0,0,1-4.35,2.41,6.26,6.26,0,0,1,3.63,11.1ZM137.57,146l3.07.05a4.25,4.25,0,0,0,1.51-.16,2.39,2.39,0,0,0,1.31-1.21,2.67,2.67,0,0,0-1.21-3.52,4.63,4.63,0,0,0-1.85-.24l-2.83,0Zm4.79,5a4.71,4.71,0,0,0-1.59-.17l-3.2,0v5.42l3.28.05a4.58,4.58,0,0,0,1.61-.17,2.53,2.53,0,0,0,1.41-1.32A2.82,2.82,0,0,0,142.36,151Zm48.29-2.57-8.58,12.93h10.42l4.39-8.51,4.61,8.51h11l-8.64-12.93,8-12.21-10,0L198,143.68l-3.82-7.48h-11ZM.34,154.09v6.46c4.46,1,9,1.79,13.58,1.24,2.53-.31,5.15-1.13,6.86-3a7.66,7.66,0,0,0,.57-9.43A9.22,9.22,0,0,0,17,146.26,31.36,31.36,0,0,0,11.75,145a4.22,4.22,0,0,1-1.41-.44,1.5,1.5,0,0,1-.78-1.2,1.45,1.45,0,0,1,.86-1.21,3.72,3.72,0,0,1,1.52-.3,37.74,37.74,0,0,1,9,1.1V137c0-.18,0-.23-.11-.3a2.15,2.15,0,0,0-.5-.07l-1-.12a53.39,53.39,0,0,0-7.79-.53,30.32,30.32,0,0,0-3.3.23,11.65,11.65,0,0,0-4.93,1.56,7.36,7.36,0,0,0-.57,12,10.4,10.4,0,0,0,4.88,1.94,12.75,12.75,0,0,1,3.94.87,2.5,2.5,0,0,1,1.18,1.11,1.33,1.33,0,0,1-.22,1.53,1.94,1.94,0,0,1-1.1.4A20.43,20.43,0,0,1,.34,154.09Z"/><path class="cls-2" d="M158,47.65l-1.25,14.5L156.25,68l-3.38-6.59ZM115.53,95.82s-.29-2.9-4,1.44l-.06,5.5S115.82,99.29,115.53,95.82Zm.29-10.43s.29-3.76-3.76.87v5.21S116.11,89.16,115.82,85.39Zm17.67-27.28a1.52,1.52,0,0,0-.54.4,4.83,4.83,0,0,0-.43.58,16.12,16.12,0,0,0-2.46,7.2c-.15,1.68,0,3.37-.05,5a6.71,6.71,0,0,0,.37,3,1,1,0,0,0,.75.61,1.05,1.05,0,0,0,.7-.44,12.24,12.24,0,0,0,3.19-7.3c.07-2,.37-3.92.33-5.89a5.84,5.84,0,0,0-.23-2.57A1.34,1.34,0,0,0,133.49,58.11Zm26-27.43-1.24,14.16,0,0h0l-4.81,4.63L150,59.92l-1.74-5.79-6.31,6.26,3.42,7.93-5.91,17.07,5.33-4.63,3.47-11,2.24,5.14L156,70.35l-1.14,13-49.5,32.71.11-2.47c4.08-3,12.63-12.58,12.63-12.58a16.43,16.43,0,0,0,2.89-7c1.16-9.26-2.89-5.21-2.89-5.21a24.43,24.43,0,0,0,3.76-8.4c.58-7.52-2.89-5.21-2.89-5.21L106.85,86.33v.11h-.08l1-20.73ZM141.87,53.55s-.58-10.42-9.84,0c0,0-7.58,9.27-8.16,18.53s.64,10.42.64,10.42,2.31,5.21,10.42-5.79A36.78,36.78,0,0,0,141.87,53.55Z"/><path class="cls-3" d="M154.9,24.32,130,12.28l-5.18,18.2-8.68-.95,1.74-19.69L127.11,11,104.53,0,59.37,25.47,99.9,55.58l-4.58-8,11-7,6.37,11.58-9.09,6.24,5.61,4.18Zm-23.41,1.51a4.74,4.74,0,0,1,4.6-1,4.66,4.66,0,0,1,2.48,6.81l0,0a10.19,10.19,0,0,1-1.37,1.64c-1.87,2-3.64,4-5.42,6.05.56-1.9,1.11-3.79,1.67-5.68a4.63,4.63,0,0,1-1.93-7.87ZM106.29,29c-.57,1-1.5,1.83-2,2.9-.71,1.62-.26,3.49.21,5.2L93,43.43a9,9,0,0,1-2.22-6.66,15.69,15.69,0,0,1,1.16-3.89,12.92,12.92,0,0,0,1-3.93,4.65,4.65,0,0,0-1.31-3.71A2.89,2.89,0,0,0,87.9,25a3.37,3.37,0,0,0-.7,3.48,18.11,18.11,0,0,0,1.7,3.34L77.32,38.21a9.31,9.31,0,0,1-4.42-6.6,11.93,11.93,0,0,1,3.15-9.29,26.36,26.36,0,0,1,8.18-5.84,37.52,37.52,0,0,1,9.12-3.38,10.81,10.81,0,0,1,5.36,0,10.41,10.41,0,0,1,4.82,3.61,21.8,21.8,0,0,1,1.94,2.83,12,12,0,0,1,1.41,3A9.58,9.58,0,0,1,106.29,29ZM115,33l9.84,1.16-1.73,10.42-9.27-1.16Z"/><path class="cls-4" d="M53,24.32l4.56,27.37a1.11,1.11,0,0,1,.07-.16c1.73-3.48,7.52,2.31,7.52,2.31l1.74,6.95s-2.32-4-4.63-3.47.58,4.63.58,4.63,8.68,8.68,8.66,15.43-7.5,0-7.5,0l-2.32-6.75s4,5.79,5.21,4.05-.58-4.05-3.47-6.94A25.89,25.89,0,0,1,59,60.39l3.83,23,40.52,28.82v-45ZM76.16,63.11l-3.35-1.36L75,69.47l-4.64-2.31L64,44.58l4,1.74L71,55l3.16,1.16-2-8.69,4.63,1.74,6.37,24.32-4.63-2.32Zm25.48,26.63-5.21-2.9-4.06-14.3v12l-3.52-2.09c1.72,5.17,4.46,15,.63,15.4-5.21.58-8.11-9.51-8.11-9.51s-2.31-9,0-10.75,5.79,2.31,5.79,2.31L82,60.21,86,62l3.47,13.31L88.9,63.11l4.63,1.73,4,14.48L97,66l5.21,1.74ZM87.13,87.13c.58,2.85.4,5.3-.4,5.46s-1.93-2-2.52-4.87-.4-5.3.4-5.46S86.54,84.27,87.13,87.13Z"/></g></g></svg>