<svg xmlns="http://www.w3.org/2000/svg" viewBox="0 0 128.78 161.96"><defs><style>.cls-1{fill:none;stroke:#fff;stroke-miterlimit:10;stroke-width:0.75px;}.cls-2{fill:#fff;}</style></defs><g id="Layer_2" data-name="Layer 2"><g id="Layer_1-2" data-name="Layer 1"><path class="cls-1" d="M.38,125.34a35.08,35.08,0,0,1,2.8-13.92A37.47,37.47,0,0,1,11,99.77a36.9,36.9,0,0,1,11.55-8,34.46,34.46,0,0,1,14.11-2.9,34.28,34.28,0,0,1,14,2.9,38,38,0,0,1,11.64,8,37.23,37.23,0,0,1,7.93,11.65,34.6,34.6,0,0,1,2.85,13.92,35.09,35.09,0,0,1-2.85,14.11A36.13,36.13,0,0,1,62.28,151a37.43,37.43,0,0,1-11.64,7.78,35.38,35.38,0,0,1-14,2.8,35.57,35.57,0,0,1-14.11-2.8A36.37,36.37,0,0,1,3.18,139.45,35.57,35.57,0,0,1,.38,125.34Zm14.49,0a23,23,0,0,0,1.7,8.84,22.57,22.57,0,0,0,4.73,7.25,21.57,21.57,0,0,0,15.81,6.62,20.5,20.5,0,0,0,15.27-6.62,23.46,23.46,0,0,0,4.54-7.25,24.7,24.7,0,0,0-.05-17.83,23.43,23.43,0,0,0-4.64-7.3,20.92,20.92,0,0,0-6.91-4.88,21.15,21.15,0,0,0-8.6-1.74,21.12,21.12,0,0,0-8.6,1.74,21.33,21.33,0,0,0-7,4.88,22.23,22.23,0,0,0-4.64,7.3A24.15,24.15,0,0,0,14.87,125.34Z"/><path class="cls-2" d="M81.4,149.22a6.64,6.64,0,0,1,4.63-2,6.47,6.47,0,0,1,4.44,2,6.39,6.39,0,0,1,2.1,4.86,6.18,6.18,0,0,1-2.1,4.91A6.73,6.73,0,0,1,86,160.81,6.92,6.92,0,0,1,81.4,159a6.18,6.18,0,0,1-2.1-4.91A6.39,6.39,0,0,1,81.4,149.22Z"/><path class="cls-2" d="M60.64,63a32.8,32.8,0,0,1,2.63-13,35.07,35.07,0,0,1,7.29-10.92,34.71,34.71,0,0,1,10.83-7.48,33.43,33.43,0,0,1,26.37,0,35.81,35.81,0,0,1,10.92,7.48A35,35,0,0,1,126.11,50a32.49,32.49,0,0,1,2.67,13,32.93,32.93,0,0,1-2.67,13.23,33.91,33.91,0,0,1-7.43,10.83,35.07,35.07,0,0,1-10.92,7.29,34.36,34.36,0,0,1-26.37,0A34,34,0,0,1,63.27,76.27,33.24,33.24,0,0,1,60.64,63Zm13.59,0a21.51,21.51,0,0,0,1.59,8.29,21.17,21.17,0,0,0,4.44,6.8,20.2,20.2,0,0,0,14.81,6.2,19.22,19.22,0,0,0,14.32-6.2,22.73,22.73,0,0,0,4.21-23.52,21.69,21.69,0,0,0-4.35-6.84,19.7,19.7,0,0,0-6.47-4.58,20.13,20.13,0,0,0-22.66,4.58,21,21,0,0,0-4.35,6.84A22.68,22.68,0,0,0,74.23,63Z"/><path class="cls-1" d="M54.1,16.94a27.72,27.72,0,0,0-5.83-8.57A28.16,28.16,0,0,0,39.7,2.51,25.31,25.31,0,0,0,29.39.38,25.44,25.44,0,0,0,19,2.51a27.14,27.14,0,0,0-8.5,5.86,27.56,27.56,0,0,0-5.72,8.57A25.78,25.78,0,0,0,2.72,27.18,26.07,26.07,0,0,0,4.79,37.56,26.7,26.7,0,0,0,19,51.78a26.06,26.06,0,0,0,10.38,2.06A25.93,25.93,0,0,0,39.7,51.78a27.56,27.56,0,0,0,8.57-5.72,26.73,26.73,0,0,0,5.83-8.5,25.91,25.91,0,0,0,2.09-10.38A25.62,25.62,0,0,0,54.1,16.94Z"/></g></g></svg>